# Blender v2.83.0 OBJ File: 'Nato ponton tank.blend'
# www.blender.org
mtllib Nato ponton tank.mtl
o Cube
v 0.000000 -0.050000 0.740000
v 0.000000 -0.050000 0.640000
v 0.000000 -2.050000 0.740000
v 0.000000 -2.050000 0.640000
v 0.970000 -0.050000 0.000000
v 0.970000 -2.050000 0.740000
v 0.970000 -2.050000 0.000000
v 0.970000 -0.050000 0.740000
v 4.670000 -2.050000 0.000000
v 4.670000 -0.050000 0.740000
v 4.670000 -0.050000 0.000000
v 4.670000 -2.050000 0.740000
vt 0.750000 0.500000
vt 0.875000 0.500000
vt 0.875000 0.750000
vt 0.750000 0.750000
vt 0.375000 0.875000
vt 0.625000 0.875000
vt 0.625000 1.000000
vt 0.375000 1.000000
vt 0.375000 0.000000
vt 0.625000 0.000000
vt 0.625000 0.250000
vt 0.375000 0.250000
vt 0.625000 0.375000
vt 0.375000 0.375000
vt 0.125000 0.500000
vt 0.250000 0.500000
vt 0.250000 0.750000
vt 0.125000 0.750000
vt 0.375000 0.777905
vt 0.625000 0.777905
vt 0.652905 0.500000
vt 0.652905 0.750000
vt 0.347095 0.500000
vt 0.625000 0.472095
vt 0.375000 0.472095
vt 0.347095 0.750000
vn 0.0000 0.0000 1.0000
vn 0.0000 -1.0000 0.0000
vn -1.0000 0.0000 0.0000
vn 0.0000 1.0000 0.0000
vn -0.5507 0.0000 -0.8347
vn 1.0000 0.0000 0.0000
vn 0.0000 0.0000 -1.0000
usemtl Material
s off
f 8/1/1 1/2/1 3/3/1 6/4/1
f 7/5/2 6/6/2 3/7/2 4/8/2
f 4/9/3 3/10/3 1/11/3 2/12/3
f 2/12/4 1/11/4 8/13/4 5/14/4
f 2/15/5 5/16/5 7/17/5 4/18/5
f 9/19/2 12/20/2 6/6/2 7/5/2
f 10/21/1 8/1/1 6/4/1 12/22/1
f 12/20/6 9/19/6 11/23/6 10/24/6
f 5/14/4 8/13/4 10/24/4 11/25/4
f 5/16/7 11/23/7 9/26/7 7/17/7
